<svg width="21" height="20" viewBox="0 0 21 20" fill="none" xmlns="http://www.w3.org/2000/svg">
<g clip-path="url(#clip0_1524_8064)">
<path d="M20.0379 10.2249C20.0379 9.56659 19.9796 8.94159 19.8796 8.33325H10.4629V12.0916H15.8546C15.6129 13.3249 14.9046 14.3666 13.8546 15.0749V17.5749H17.0712C18.9546 15.8333 20.0379 13.2666 20.0379 10.2249Z" fill="#4285F4"/>
<path d="M10.4631 20.0001C13.1631 20.0001 15.4214 19.1001 17.0714 17.5751L13.8548 15.0751C12.9548 15.6751 11.8131 16.0418 10.4631 16.0418C7.85475 16.0418 5.64642 14.2834 4.85475 11.9084H1.53809V14.4834C3.17975 17.7501 6.55475 20.0001 10.4631 20.0001Z" fill="#34A853"/>
<path d="M4.85456 11.9083C4.64622 11.3083 4.53789 10.6666 4.53789 9.99993C4.53789 9.33327 4.65456 8.6916 4.85456 8.0916V5.5166H1.53789C0.854556 6.8666 0.462891 8.38327 0.462891 9.99993C0.462891 11.6166 0.854556 13.1333 1.53789 14.4833L4.85456 11.9083Z" fill="#FBBC05"/>
<path d="M10.4631 3.95833C11.9381 3.95833 13.2548 4.46667 14.2964 5.45834L17.1464 2.60833C15.4214 0.991668 13.1631 0 10.4631 0C6.55475 0 3.17975 2.25 1.53809 5.51667L4.85475 8.09167C5.64642 5.71667 7.85475 3.95833 10.4631 3.95833Z" fill="#EA4335"/>
</g>
<defs>
<clipPath id="clip0_1524_8064">
<rect width="20" height="20" fill="white" transform="translate(0.25)"/>
</clipPath>
</defs>
</svg>
