<svg
  xmlns="http://www.w3.org/2000/svg"
  width="14"
  height="14"
  viewBox="0 0 14 14"
  fill="none"
>
  <path
    d="M11.2707 3.24461C11.1821 3.19882 11.0959 3.14863 11.0123 3.09422C10.7693 2.93356 10.5465 2.74426 10.3487 2.53039C9.85377 1.9641 9.66893 1.38961 9.60084 0.987383H9.60357C9.5467 0.653516 9.57022 0.4375 9.57377 0.4375H7.31955V9.15414C7.31955 9.27117 7.31955 9.38684 7.31463 9.50113C7.31463 9.51535 7.31326 9.52848 7.31244 9.54379C7.31244 9.55008 7.31244 9.55664 7.31108 9.5632C7.31108 9.56484 7.31108 9.56648 7.31108 9.56812C7.28731 9.88088 7.18706 10.183 7.01913 10.4479C6.8512 10.7128 6.62074 10.9324 6.34803 11.0873C6.0638 11.249 5.74234 11.3339 5.41533 11.3334C4.36506 11.3334 3.51385 10.477 3.51385 9.41937C3.51385 8.36172 4.36506 7.50531 5.41533 7.50531C5.61414 7.50513 5.81173 7.53641 6.00076 7.59801L6.0035 5.30277C5.42965 5.22865 4.84667 5.27425 4.29133 5.43671C3.736 5.59917 3.22035 5.87496 2.77693 6.24668C2.3884 6.58427 2.06175 6.98707 1.8117 7.43695C1.71654 7.60102 1.35752 8.26027 1.31404 9.33023C1.2867 9.93754 1.46908 10.5667 1.55604 10.8268V10.8322C1.61072 10.9854 1.82264 11.5079 2.16799 11.9484C2.44647 12.3018 2.77548 12.6122 3.14443 12.8696V12.8641L3.1499 12.8696C4.24119 13.6112 5.45115 13.5625 5.45115 13.5625C5.66061 13.554 6.36225 13.5625 7.15904 13.1849C8.04279 12.7662 8.54592 12.1425 8.54592 12.1425C8.86734 11.7699 9.12292 11.3452 9.3017 10.8866C9.50568 10.3504 9.57377 9.7073 9.57377 9.45027V4.8259C9.60111 4.8423 9.96533 5.0832 9.96533 5.0832C9.96533 5.0832 10.4901 5.41953 11.3087 5.63855C11.8961 5.79441 12.6874 5.82723 12.6874 5.82723V3.58941C12.4101 3.61949 11.8471 3.53199 11.2707 3.24461Z"
    fill="white"
  />
</svg>